<svg xmlns="http://www.w3.org/2000/svg" fill="#ffffff" height="40" viewBox="0 -960 760 960" width="40"><path d="M300.039-300.039v-360.806h360.806v360.806H300.039Zm43.845-43.845H617V-617H343.884v273.116ZM191.539-191.539v48.461q-19.692 0-34.076-14.385-14.385-14.384-14.385-34.076h48.461Zm-48.461-108.5V-348.5h48.461v48.461h-48.461Zm0-156.077v-48.461h48.461v48.461h-48.461Zm0-156.268v-48.461h48.461v48.461h-48.461Zm48.461-156.077h-48.461q0-19.692 14.385-34.076 14.384-14.385 34.076-14.385v48.461Zm108.5 625.383v-48.461H348.5v48.461h-48.461Zm0-625.383v-48.461H348.5v48.461h-48.461Zm156.077 625.383v-48.461h48.461v48.461h-48.461Zm0-625.383v-48.461h48.461v48.461h-48.461Zm156.268 625.383v-48.461h48.461v48.461h-48.461Zm0-625.383v-48.461h48.461v48.461h-48.461Zm156.077 625.383v-48.461h48.461q0 20.153-14.385 34.307-14.384 14.154-34.076 14.154Zm0-156.961V-348.5h48.461v48.461h-48.461Zm0-156.077v-48.461h48.461v48.461h-48.461Zm0-156.268v-48.461h48.461v48.461h-48.461Zm0-156.077v-48.461q19.692 0 34.076 14.385 14.385 14.384 14.385 34.076h-48.461Z"/></svg>